<?xml version="1.0" encoding="UTF-8" standalone="no"?>
<svg
   fill="none"
   viewBox="0 0 36 36"
   version="1.1"
   id="svg15"
   sodipodi:docname="favicon.svg"
   inkscape:version="1.2.2 (b0a8486, 2022-12-01)"
   inkscape:export-filename="favicon.png"
   inkscape:export-xdpi="1066.6666"
   inkscape:export-ydpi="1066.6666"
   xmlns:inkscape="http://www.inkscape.org/namespaces/inkscape"
   xmlns:sodipodi="http://sodipodi.sourceforge.net/DTD/sodipodi-0.dtd"
   xmlns="http://www.w3.org/2000/svg"
   xmlns:svg="http://www.w3.org/2000/svg">
  <sodipodi:namedview
     id="namedview17"
     pagecolor="#ffffff"
     bordercolor="#999999"
     borderopacity="1"
     inkscape:showpageshadow="0"
     inkscape:pageopacity="0"
     inkscape:pagecheckerboard="0"
     inkscape:deskcolor="#d1d1d1"
     showgrid="false"
     inkscape:zoom="18.541911"
     inkscape:cx="14.642504"
     inkscape:cy="16.85371"
     inkscape:window-width="1440"
     inkscape:window-height="793"
     inkscape:window-x="0"
     inkscape:window-y="25"
     inkscape:window-maximized="0"
     inkscape:current-layer="g538" />
  <defs
     id="defs11">
    <linearGradient
       id="gradient"
       x1="16"
       x2="16"
       y1="32"
       y2="24"
       gradientUnits="userSpaceOnUse">
      <stop
         stop-color="#000"
         id="stop6" />
      <stop
         offset="1"
         stop-color="#000"
         stop-opacity="0"
         id="stop8" />
    </linearGradient>
  </defs>
  <style
     id="style13">
    @media (prefers-color-scheme:dark){:root{filter:invert(100%)}}
  </style>
  <g
     id="g528"
     transform="rotate(7.5835787,14.777335,18.919074)">
    <rect
       style="fill:#000000;stroke:#000000;stroke-width:0"
       id="rect229-2"
       width="13.375105"
       height="13.375105"
       x="7.6043949"
       y="4.9078007"
       rx="2.2" />
    <g
       aria-label="p"
       id="text367"
       style="font-family:'Gill Sans';-inkscape-font-specification:'Gill Sans';fill:#ffffff;stroke:#000000;stroke-width:0">
      <path
         d="M 11.839799,15.664689 V 7.5260172 h 1.869141 q 1.435546,0 2.232421,0.7148437 0.802735,0.7148438 0.802735,1.9980471 0,1.21289 -0.75586,1.992187 -0.75,0.779297 -1.916015,0.779297 -0.515625,0 -1.142578,-0.228515 v 2.882812 z m 1.845703,-7.1425781 h -0.755859 v 3.3164061 q 0.492187,0.251953 1.03125,0.251953 0.75,0 1.224609,-0.521484 0.480469,-0.521484 0.480469,-1.341797 0,-0.5273437 -0.228516,-0.9316406 -0.222656,-0.4042968 -0.615234,-0.5859375 -0.386719,-0.1875 -1.136719,-0.1875 z"
         id="path179" />
    </g>
  </g>
  <g
     id="g533">
    <rect
       style="fill:#000000;stroke:#000000;stroke-width:0"
       id="rect229"
       width="13.375105"
       height="13.375105"
       x="5.2853241"
       y="18.552565"
       rx="2.2" />
    <g
       aria-label="d"
       id="text367-0"
       style="font-family:'Gill Sans';-inkscape-font-specification:'Gill Sans';fill:#ffffff;stroke:#000000;stroke-width:0">
      <path
         d="m 13.34983,21.147343 h 1.072265 v 8.185547 h -2.279297 q -1.195312,0 -1.910156,-0.75586 -0.7089842,-0.755859 -0.7089842,-2.027344 0,-1.189453 0.7441402,-1.957031 0.75,-0.767578 1.910157,-0.767578 0.539062,0 1.171875,0.228516 z m 0,7.271484 v -3.416016 q -0.498047,-0.251953 -1.007813,-0.251953 -0.796875,0 -1.271484,0.521485 -0.46875,0.521484 -0.46875,1.40625 0,0.832031 0.410156,1.283203 0.246094,0.269531 0.521484,0.363281 0.275391,0.09375 0.990235,0.09375 z"
         id="path182" />
    </g>
  </g>
  <g
     id="g538">
    <rect
       style="fill:#000000;stroke:#000000;stroke-width:0"
       id="rect229-4"
       width="13.375105"
       height="13.375105"
       x="19.091883"
       y="18.498632"
       rx="2.2" />
    <g
       aria-label="6"
       id="text367-0-4"
       style="font-family:'Gill Sans';-inkscape-font-specification:'Gill Sans';fill:#ffffff;stroke:#000000;stroke-width:0">
      <path
         d="m 26.400528,20.854246 0.117187,-0.08203 0.708985,0.896484 q -0.9375,0.603516 -1.558594,1.31836 -0.615234,0.714843 -0.949219,1.68164 0.650391,-0.333984 1.294922,-0.333984 0.966797,0 1.628906,0.685547 0.66211,0.685547 0.66211,1.68164 0,1.025391 -0.720703,1.740235 -0.720703,0.714844 -1.751953,0.714844 -1.154297,0 -1.869141,-0.808594 -0.708984,-0.814453 -0.708984,-2.126953 0,-0.984375 0.363281,-1.957032 0.36914,-0.978515 1.054687,-1.828125 0.691407,-0.855468 1.728516,-1.582031 z m -1.933594,5.027344 q -0.04687,0.275391 -0.04687,0.615234 0,0.691407 0.398438,1.136719 0.404297,0.445313 1.03125,0.445313 0.5625,0 0.925781,-0.38086 0.369141,-0.380859 0.369141,-0.960937 0,-0.591797 -0.392579,-0.955078 -0.386718,-0.369141 -1.02539,-0.369141 -0.328125,0 -0.597656,0.09961 -0.263672,0.09961 -0.66211,0.369141 z"
         id="path185" />
    </g>
  </g>
</svg>
